<svg id="e0rCzJ2SDah1" xmlns="http://www.w3.org/2000/svg" xmlns:xlink="http://www.w3.org/1999/xlink" viewBox="0 0 512 512" shape-rendering="geometricPrecision" text-rendering="geometricPrecision"><defs><radialGradient id="e0rCzJ2SDah5-fill" cx="0" cy="0" r="1.638236" spreadMethod="pad" gradientUnits="objectBoundingBox" gradientTransform="translate(0.5 0.5)"><stop id="e0rCzJ2SDah5-fill-0" offset="0%" stop-color="#12099c"/><stop id="e0rCzJ2SDah5-fill-1" offset="100%" stop-color="#eca1d3"/></radialGradient><radialGradient id="e0rCzJ2SDah6-fill" cx="0" cy="0" r="1.216871" spreadMethod="pad" gradientUnits="objectBoundingBox" gradientTransform="translate(0.5 0.5)"><stop id="e0rCzJ2SDah6-fill-0" offset="0%" stop-color="#160d9c"/><stop id="e0rCzJ2SDah6-fill-1" offset="100%" stop-color="#e9f263"/></radialGradient><radialGradient id="e0rCzJ2SDah7-fill" cx="0" cy="0" r="1.656249" spreadMethod="pad" gradientUnits="objectBoundingBox" gradientTransform="translate(0.5 0.5)"><stop id="e0rCzJ2SDah7-fill-0" offset="0%" stop-color="#18119b"/><stop id="e0rCzJ2SDah7-fill-1" offset="100%" stop-color="#e7ee64"/></radialGradient><radialGradient id="e0rCzJ2SDah9-fill" cx="0" cy="0" r="1.967289" spreadMethod="pad" gradientUnits="objectBoundingBox" gradientTransform="translate(0.5 0.5)"><stop id="e0rCzJ2SDah9-fill-0" offset="0%" stop-color="#135e2c"/><stop id="e0rCzJ2SDah9-fill-1" offset="100%" stop-color="#eca1d3"/></radialGradient><radialGradient id="e0rCzJ2SDah10-fill" cx="0" cy="0" r="1.656249" spreadMethod="pad" gradientUnits="objectBoundingBox" gradientTransform="translate(0.5 0.5)"><stop id="e0rCzJ2SDah10-fill-0" offset="0%" stop-color="#18119b"/><stop id="e0rCzJ2SDah10-fill-1" offset="100%" stop-color="#e7ee64"/></radialGradient></defs><g transform="translate(.002991 0)"><g><path d="M490.667,170.667h-42.667c-11.782,0-21.333,9.551-21.333,21.333s9.551,21.333,21.333,21.333h21.333v106.667h-21.74c-2.857-22.522-21.029-40.261-43.757-42.436L389.148,78.092C386.637,34.284,349.242,0,304.256,0h-96.512c-44.986,0-82.381,34.284-84.914,78.437L108.163,277.564c-22.728,2.175-40.9,19.914-43.757,42.436h-21.74v-106.667h21.334c11.782,0,21.333-9.551,21.333-21.333s-9.551-21.333-21.333-21.333h-42.667C9.551,170.667,0,180.218,0,192v149.333c0,11.782,9.551,21.333,21.333,21.333h42.667L64,384c0,11.782,9.551,21.333,21.333,21.333h21.333v85.333c0,11.782,9.551,21.333,21.333,21.333h64c11.782,0,21.333-9.551,21.333-21.333v-85.333h85.333v85.333c0,11.782,9.551,21.333,21.333,21.333h64c11.782,0,21.333-9.551,21.333-21.333v-85.333h21.333c11.782,0,21.333-9.551,21.333-21.333v-21.333h42.667c11.782,0,21.333-9.551,21.333-21.333v-149.334c.003-11.782-9.548-21.333-21.33-21.333ZM165.404,81.225c1.244-21.64,19.698-38.559,42.34-38.559h96.512c22.642,0,41.096,16.918,42.318,38.214l14.464,196.453h-210.076L165.404,81.225Zm5.263,388.108h-21.333v-64h21.333v64Zm192,0h-21.333v-64h21.333v64Zm42.666-106.666h-21.333-64-128-64-21.333v-36.459c0-3.429,2.779-6.208,6.208-6.208h15.125h256h15.125c3.429,0,6.208,2.779,6.208,6.208v36.459Z"/></g></g><path d="M159.890785,61.8325L150.962,277.564l211.705-.231001L353.4534,61.8325L319.998,42.665997L192,42.665996L159.890785,61.8325Z" transform="translate(-.8145-1.344181)" fill="url(#e0rCzJ2SDah5-fill)" stroke="#3f5787" stroke-width="1.024"/><path d="M108.163,320l-1.497,42.667h298.667L403.836,320h-295.673Z" fill="url(#e0rCzJ2SDah6-fill)" stroke="#3f5787" stroke-width="1.024"/><rect width="32.260436" height="77.96272" rx="0" ry="0" transform="matrix(1 0 0 0.827585 337.156951 404.599632)" fill="url(#e0rCzJ2SDah7-fill)" stroke-width="0"/><rect width="19.152579" height="64.520872" rx="0" ry="0" transform="matrix(1.561464 0 0 1 144.770758 404.599632)" fill="#135e2c" stroke-width="0"/><rect width="32.260436" height="77.96272" rx="0" ry="0" transform="matrix(1 0 0 0.827585 143.593572 404.599632)" fill="url(#e0rCzJ2SDah9-fill)" stroke-width="0"/><rect width="32.260436" height="77.96272" rx="0" ry="0" transform="matrix(1 0 0 0.827585 143.593572 404.599726)" fill="url(#e0rCzJ2SDah10-fill)" stroke-width="0"/></svg>
